<?xml version="1.0" encoding="UTF-8" standalone="no"?>
<!-- Created with Inkscape (http://www.inkscape.org/) -->
<svg
   xmlns:dc="http://purl.org/dc/elements/1.1/"
   xmlns:cc="http://web.resource.org/cc/"
   xmlns:rdf="http://www.w3.org/1999/02/22-rdf-syntax-ns#"
   xmlns:svg="http://www.w3.org/2000/svg"
   xmlns="http://www.w3.org/2000/svg"
   xmlns:sodipodi="http://sodipodi.sourceforge.net/DTD/sodipodi-0.dtd"
   xmlns:inkscape="http://www.inkscape.org/namespaces/inkscape"
   width="744.09448819"
   height="1052.3622047"
   id="svg3167"
   sodipodi:version="0.32"
   inkscape:version="0.45.1"
   sodipodi:docbase="/home/chris/project/vocabulink/graphics"
   sodipodi:docname="updown.svg"
   inkscape:output_extension="org.inkscape.output.svg.inkscape"
   inkscape:export-filename="/home/chris/project/vocabulink/s/img/updown.png"
   inkscape:export-xdpi="2.450789"
   inkscape:export-ydpi="2.450789">
  <defs
     id="defs3169" />
  <sodipodi:namedview
     id="base"
     pagecolor="#ffffff"
     bordercolor="#ffffff"
     borderopacity="0.0"
     inkscape:pageopacity="0.0"
     inkscape:pageshadow="0"
     inkscape:zoom="0.35"
     inkscape:cx="348.01294"
     inkscape:cy="494.57654"
     inkscape:document-units="px"
     inkscape:current-layer="layer1"
     inkscape:window-width="798"
     inkscape:window-height="1198"
     inkscape:window-x="0"
     inkscape:window-y="0" />
  <metadata
     id="metadata3172">
    <rdf:RDF>
      <cc:Work
         rdf:about="">
        <dc:format>image/svg+xml</dc:format>
        <dc:type
           rdf:resource="http://purl.org/dc/dcmitype/StillImage" />
      </cc:Work>
    </rdf:RDF>
  </metadata>
  <g
     inkscape:label="Layer 1"
     inkscape:groupmode="layer"
     id="layer1">
    <path
       style="fill:#000000"
       d="M 4.2834343,621.26139 L 327.00952,902.53738 C 337.81102,912.21208 349.82557,918.16998 371.32267,918.16998 C 393.03157,918.16998 404.94022,912.21208 415.84762,902.53738 L 738.46782,621.26139 C 743.76267,616.50604 746.62189,611.09479 746.62189,605.62887 C 746.62189,588.35658 739.51224,574.36383 706.04877,574.36383 L 36.808384,574.36383 C 3.3449043,574.36383 -3.7647457,588.35658 -3.7647457,605.62887 C -3.7647457,611.14945 -1.0114257,616.50604 4.2834343,621.26139 z "
       id="path3155"
       sodipodi:nodetypes="ccsccsccsc" />
    <path
       sodipodi:nodetypes="ccsccsccsc"
       id="path3176"
       d="M 4.2834343,381.9391 L 327.00952,100.66307 C 337.81102,90.9884 349.82557,85.03055 371.32267,85.03055 C 393.03157,85.03055 404.94022,90.9884 415.84762,100.66307 L 738.46782,381.9391 C 743.76267,386.69445 746.62189,392.1057 746.62189,397.57162 C 746.62189,414.84391 739.51224,428.83666 706.04877,428.83666 L 36.808384,428.83666 C 3.3449043,428.83666 -3.7647457,414.84391 -3.7647457,397.57162 C -3.7647457,392.05104 -1.0114257,386.69445 4.2834343,381.9391 z "
       style="fill:#000000" />
    <path
       sodipodi:nodetypes="ccsccsccsc"
       id="path3196"
       d="M 4.2834343,1599.9281 L 327.00952,1881.2041 C 337.81102,1890.8788 349.82557,1896.8367 371.32267,1896.8367 C 393.03157,1896.8367 404.94022,1890.8788 415.84762,1881.2041 L 738.46782,1599.9281 C 743.76267,1595.1728 746.62189,1589.7615 746.62189,1584.2956 C 746.62189,1567.0233 739.51224,1553.0305 706.04877,1553.0305 L 36.808384,1553.0305 C 3.3449043,1553.0305 -3.7647457,1567.0233 -3.7647457,1584.2956 C -3.7647457,1589.8162 -1.0114257,1595.1728 4.2834343,1599.9281 z "
       style="fill:#ff2c01;fill-opacity:1" />
    <path
       style="fill:#00d509;fill-opacity:1"
       d="M 4.2834343,1360.6058 L 327.00952,1079.3298 C 337.81102,1069.6551 349.82557,1063.6972 371.32267,1063.6972 C 393.03157,1063.6972 404.94022,1069.6551 415.84762,1079.3298 L 738.46782,1360.6058 C 743.76267,1365.3612 746.62189,1370.7724 746.62189,1376.2383 C 746.62189,1393.5106 739.51224,1407.5034 706.04877,1407.5034 L 36.808384,1407.5034 C 3.3449043,1407.5034 -3.7647457,1393.5106 -3.7647457,1376.2383 C -3.7647457,1370.7177 -1.0114257,1365.3612 4.2834343,1360.6058 z "
       id="path3198"
       sodipodi:nodetypes="ccsccsccsc" />
  </g>
</svg>
